<?xml version="1.0" encoding="UTF-8"?>
<svg xmlns="http://www.w3.org/2000/svg" xmlns:xlink="http://www.w3.org/1999/xlink" id="图层_1" data-name="图层 1" viewBox="254.92 140.14 510.64 366">
  <defs>
    <radialGradient id="未命名的渐变" cx="300.23" cy="274.36" r="83.92" gradientTransform="matrix(3.38, 0, 0, -3.38, -739.63, 1414.26)" gradientUnits="userSpaceOnUse">
      <stop offset="0.1" stop-color="#0064ff"></stop>
      <stop offset="0.18" stop-color="#0064ff" stop-opacity="0.96"></stop>
      <stop offset="0.32" stop-color="#0064ff" stop-opacity="0.87"></stop>
      <stop offset="0.49" stop-color="#0064ff" stop-opacity="0.71"></stop>
      <stop offset="0.69" stop-color="#0064ff" stop-opacity="0.5"></stop>
      <stop offset="0.91" stop-color="#0064ff" stop-opacity="0.22"></stop>
      <stop offset="1" stop-color="#0064ff" stop-opacity="0.1"></stop>
    </radialGradient>
    <radialGradient id="未命名的渐变_2" cx="300.14" cy="274.95" r="111.42" xlink:href="#未命名的渐变"></radialGradient>
    <radialGradient id="未命名的渐变_3" cx="299.72" cy="274.41" r="139.65" gradientTransform="matrix(3.38, 0, 0, -3.38, -739.63, 1414.26)" gradientUnits="userSpaceOnUse">
      <stop offset="0" stop-color="#0064ff"></stop>
      <stop offset="0.13" stop-color="#0064ff" stop-opacity="0.98"></stop>
      <stop offset="0.26" stop-color="#0064ff" stop-opacity="0.93"></stop>
      <stop offset="0.39" stop-color="#0064ff" stop-opacity="0.85"></stop>
      <stop offset="0.53" stop-color="#0064ff" stop-opacity="0.74"></stop>
      <stop offset="0.67" stop-color="#0064ff" stop-opacity="0.59"></stop>
      <stop offset="0.8" stop-color="#0064ff" stop-opacity="0.41"></stop>
      <stop offset="0.94" stop-color="#0064ff" stop-opacity="0.2"></stop>
      <stop offset="1" stop-color="#0064ff" stop-opacity="0.1"></stop>
    </radialGradient>
    <radialGradient id="未命名的渐变_4" cx="299.72" cy="274.41" r="139.65" gradientTransform="matrix(3.38, 0, 0, -3.38, -739.63, 1414.26)" gradientUnits="userSpaceOnUse">
      <stop offset="0" stop-color="#0064ff"></stop>
      <stop offset="0.09" stop-color="#0064ff" stop-opacity="0.96"></stop>
      <stop offset="0.24" stop-color="#0064ff" stop-opacity="0.87"></stop>
      <stop offset="0.43" stop-color="#0064ff" stop-opacity="0.71"></stop>
      <stop offset="0.65" stop-color="#0064ff" stop-opacity="0.5"></stop>
      <stop offset="0.9" stop-color="#0064ff" stop-opacity="0.22"></stop>
      <stop offset="1" stop-color="#0064ff" stop-opacity="0.1"></stop>
    </radialGradient>
    <radialGradient id="未命名的渐变_5" cx="300.14" cy="274.95" r="111.42" gradientTransform="matrix(3.38, 0, 0, -3.38, -739.63, 1414.26)" gradientUnits="userSpaceOnUse">
      <stop offset="0.1" stop-color="#0064ff"></stop>
      <stop offset="0.19" stop-color="#0064ff" stop-opacity="0.88"></stop>
      <stop offset="0.41" stop-color="#0064ff" stop-opacity="0.6"></stop>
      <stop offset="0.61" stop-color="#0064ff" stop-opacity="0.39"></stop>
      <stop offset="0.78" stop-color="#0064ff" stop-opacity="0.23"></stop>
      <stop offset="0.92" stop-color="#0064ff" stop-opacity="0.14"></stop>
      <stop offset="1" stop-color="#0064ff" stop-opacity="0.1"></stop>
    </radialGradient>
  </defs>
  <title>RideFlux</title>
  <path d="M557.31,486.14c0-155.94-126.43-282.39-282.39-282.39V486.14Z" style="fill:url(#未命名的渐变)"></path>
  <path d="M651.42,486.14c-.06-139.3-75.79-260.93-188.31-326l-188.19,326Z" style="fill:url(#未命名的渐变_2)"></path>
  <path d="M682.39,250.89,274.92,486.14H745.56a468.39,468.39,0,0,0-63.17-235.25" style="fill:url(#未命名的渐变_3)"></path>
  <path d="M274.92,486.14H557.31A280.77,280.77,0,0,0,519.44,345Z" style="opacity:0.6000000238418579;isolation:isolate;fill:url(#未命名的渐变_4)"></path>
  <path d="M519.41,345A283.64,283.64,0,0,0,416.08,241.62L274.92,486.11Z" style="opacity:0.30000001192092896;isolation:isolate;fill:url(#未命名的渐变_5)"></path>
  <path d="M519.44,345a1.37,1.37,0,0,0,.15.23,282.83,282.83,0,0,1,22.1,48.28c.23.67.46,1.33.67,2q2.49,7.34,4.56,14.83c.21.76.44,1.55.64,2.3a282.21,282.21,0,0,1,6.9,33.8c.2,1.54.4,3.08.58,4.59q.78,6.38,1.31,12.83c.11,1.65.26,3.28.37,4.94.35,5.7.59,11.46.59,17.25v.05h94.14A374.55,374.55,0,0,0,600.9,297.86l-81.46,47Z" style="opacity:0.30000001192092896;isolation:isolate;fill:url(#未命名的渐变_4)"></path>
</svg>
